<?xml version="1.0" encoding="UTF-8"?>
<svg xmlns="http://www.w3.org/2000/svg" xmlns:xlink="http://www.w3.org/1999/xlink" width="20px" height="20px" viewBox="0 0 20 20" version="1.1">
<g id="surface1">
<path style=" stroke:none;fill-rule:evenodd;fill:rgb(100%,100%,100%);fill-opacity:1;" d="M 2.148438 4.285156 C 1.28125 4.289062 0.496094 3.769531 0.164062 2.964844 C -0.171875 2.164062 0.0117188 1.242188 0.625 0.625 C 1.238281 0.0117188 2.160156 -0.175781 2.964844 0.15625 C 3.765625 0.488281 4.289062 1.273438 4.289062 2.140625 C 4.289062 3.324219 3.332031 4.285156 2.148438 4.285156 Z M 2.148438 12.15625 C 0.964844 12.160156 0 11.199219 -0.00390625 10.015625 C -0.00390625 8.828125 0.957031 7.867188 2.140625 7.863281 C 3.328125 7.863281 4.289062 8.824219 4.289062 10.007812 C 4.289062 11.191406 3.332031 12.152344 2.148438 12.15625 Z M 2.148438 20.023438 C 0.964844 20.027344 0 19.066406 -0.00390625 17.882812 C -0.00390625 16.695312 0.957031 15.734375 2.140625 15.730469 C 3.328125 15.730469 4.289062 16.691406 4.289062 17.878906 C 4.289062 19.0625 3.332031 20.019531 2.148438 20.023438 Z M 10.011719 4.285156 C 8.824219 4.285156 7.867188 3.324219 7.867188 2.136719 C 7.871094 0.953125 8.832031 -0.0078125 10.015625 -0.00390625 C 11.199219 -0.00390625 12.160156 0.957031 12.160156 2.140625 C 12.160156 2.710938 11.933594 3.257812 11.53125 3.660156 C 11.128906 4.0625 10.578125 4.289062 10.011719 4.285156 Z M 10.011719 12.15625 C 8.824219 12.152344 7.867188 11.191406 7.867188 10.007812 C 7.871094 8.824219 8.832031 7.863281 10.015625 7.863281 C 11.199219 7.863281 12.160156 8.824219 12.160156 10.007812 C 12.160156 10.578125 11.933594 11.125 11.53125 11.527344 C 11.128906 11.933594 10.582031 12.15625 10.011719 12.15625 Z M 10.011719 20.023438 C 8.824219 20.023438 7.867188 19.058594 7.867188 17.875 C 7.871094 16.691406 8.832031 15.730469 10.015625 15.730469 C 11.199219 15.734375 12.160156 16.691406 12.160156 17.878906 C 12.160156 18.449219 11.933594 18.996094 11.53125 19.398438 C 11.128906 19.800781 10.582031 20.027344 10.011719 20.023438 Z M 17.878906 4.285156 C 16.695312 4.285156 15.738281 3.324219 15.738281 2.136719 C 15.738281 0.953125 16.703125 -0.0078125 17.886719 -0.00390625 C 19.070312 -0.00390625 20.03125 0.957031 20.03125 2.140625 C 20.03125 2.710938 19.804688 3.257812 19.402344 3.660156 C 18.996094 4.0625 18.449219 4.289062 17.878906 4.285156 Z M 17.878906 12.15625 C 16.695312 12.152344 15.738281 11.191406 15.738281 10.007812 C 15.738281 8.824219 16.699219 7.863281 17.882812 7.863281 C 19.070312 7.863281 20.03125 8.824219 20.03125 10.007812 C 20.03125 10.578125 19.804688 11.125 19.402344 11.527344 C 18.996094 11.933594 18.449219 12.15625 17.878906 12.15625 Z M 17.878906 20.023438 C 16.695312 20.023438 15.738281 19.058594 15.738281 17.875 C 15.738281 16.691406 16.699219 15.730469 17.886719 15.730469 C 19.070312 15.734375 20.03125 16.691406 20.03125 17.878906 C 20.03125 18.449219 19.804688 18.996094 19.402344 19.398438 C 18.996094 19.800781 18.449219 20.027344 17.878906 20.023438 Z M 17.878906 20.023438 "/>
</g>
</svg>
