<?xml version="1.0" encoding="UTF-8"?>
<svg xmlns="http://www.w3.org/2000/svg" xmlns:xlink="http://www.w3.org/1999/xlink" width="20px" height="20px" viewBox="0 0 20 20" version="1.1">
<g id="surface1">
<path style=" stroke:none;fill-rule:evenodd;fill:rgb(14.117647%,24.705882%,30.196078%);fill-opacity:1;" d="M 9.933594 19.40625 C 9.828125 19.40625 9.722656 19.382812 9.621094 19.335938 C 9.234375 19.148438 0.0117188 14.652344 0.0117188 5.886719 C 5.203125 5.316406 10.1875 3.292969 14.511719 0.00390625 C 17.40625 0.0078125 19.777344 2.601562 19.855469 5.859375 C 19.855469 14.652344 10.644531 19.152344 10.246094 19.335938 C 10.144531 19.382812 10.039062 19.410156 9.933594 19.40625 Z M 5.367188 1.734375 C 3.304688 1.746094 1.625 3.597656 1.578125 5.917969 C 1.578125 12.675781 8.390625 16.746094 9.933594 17.585938 C 11.488281 16.746094 18.289062 12.671875 18.289062 5.886719 C 18.230469 3.578125 16.546875 1.738281 14.492188 1.746094 C 12.4375 1.753906 10.765625 3.605469 10.722656 5.917969 C 10.699219 6.386719 10.351562 6.753906 9.933594 6.753906 C 9.515625 6.757812 9.171875 6.386719 9.15625 5.917969 C 9.109375 3.597656 7.429688 1.746094 5.367188 1.734375 Z M 5.367188 1.734375 "/>
</g>
</svg>
