<?xml version="1.0" encoding="UTF-8"?>
<svg xmlns="http://www.w3.org/2000/svg" xmlns:xlink="http://www.w3.org/1999/xlink" width="20px" height="20px" viewBox="0 0 20 20" version="1.1">
<g id="surface1">
<path style=" stroke:none;fill-rule:evenodd;fill:rgb(14.117647%,24.705882%,30.196078%);fill-opacity:1;" d="M 3.972656 8.101562 C 4.191406 8.050781 4.421875 8.089844 4.613281 8.210938 C 4.800781 8.332031 4.929688 8.527344 4.972656 8.746094 C 5.089844 9.507812 5.453125 10.207031 6.011719 10.734375 C 6.566406 11.257812 7.253906 11.617188 8 11.769531 C 8.449219 11.867188 8.742188 12.308594 8.652344 12.761719 C 8.5625 13.207031 8.144531 13.503906 7.691406 13.445312 C 6.617188 13.234375 5.625 12.710938 4.839844 11.941406 C 4.066406 11.160156 3.542969 10.167969 3.332031 9.09375 C 3.277344 8.875 3.3125 8.644531 3.433594 8.457031 C 3.558594 8.265625 3.753906 8.140625 3.972656 8.101562 Z M 8.347656 0 C 12.964844 -0.0078125 16.710938 3.726562 16.71875 8.34375 C 16.722656 9.539062 16.464844 10.722656 15.960938 11.808594 L 19.078125 14.523438 C 21.347656 16.851562 20.066406 18.878906 19.464844 19.480469 C 18.90625 20.085938 16.8125 21.367188 14.492188 19.089844 L 11.746094 15.957031 C 8.636719 17.359375 4.984375 16.730469 2.527344 14.363281 C 0.0664062 12 -0.703125 8.375 0.578125 5.214844 C 1.859375 2.050781 4.933594 -0.0117188 8.347656 0 Z M 15.746094 18.023438 C 16.359375 18.789062 17.476562 18.921875 18.253906 18.324219 C 18.550781 17.953125 18.6875 17.480469 18.628906 17.007812 C 18.570312 16.539062 18.324219 16.109375 17.945312 15.824219 L 15.066406 13.320312 C 14.554688 14.003906 13.9375 14.609375 13.238281 15.105469 Z M 8.347656 14.941406 C 11.988281 14.921875 14.925781 11.964844 14.914062 8.324219 C 14.902344 4.683594 11.949219 1.738281 8.308594 1.746094 C 4.667969 1.75 1.71875 4.703125 1.71875 8.34375 C 1.734375 11.992188 4.699219 14.9375 8.347656 14.933594 Z M 8.347656 14.941406 "/>
</g>
</svg>
