<?xml version="1.0" encoding="UTF-8"?>
<svg xmlns="http://www.w3.org/2000/svg" xmlns:xlink="http://www.w3.org/1999/xlink" width="20px" height="20px" viewBox="0 0 20 20" version="1.1">
<g id="surface1">
<path style=" stroke:none;fill-rule:evenodd;fill:rgb(14.117647%,24.705882%,30.196078%);fill-opacity:1;" d="M 5.820312 19.972656 C 4.617188 19.972656 3.636719 18.882812 3.636719 17.535156 C 3.636719 16.1875 4.617188 15.09375 5.820312 15.09375 C 6.398438 15.09375 6.949219 15.347656 7.359375 15.800781 C 7.773438 16.253906 8.003906 16.878906 8 17.527344 C 8.003906 18.175781 7.773438 18.796875 7.367188 19.257812 C 6.957031 19.714844 6.402344 19.972656 5.820312 19.972656 Z M 5.820312 16.488281 C 5.441406 16.488281 5.101562 16.742188 4.957031 17.132812 C 4.808594 17.523438 4.890625 17.976562 5.160156 18.273438 C 5.425781 18.574219 5.828125 18.664062 6.179688 18.5 C 6.527344 18.335938 6.753906 17.953125 6.757812 17.53125 C 6.753906 17.253906 6.65625 16.988281 6.484375 16.789062 C 6.308594 16.597656 6.070312 16.488281 5.820312 16.488281 Z M 14.652344 19.972656 C 14.074219 19.976562 13.523438 19.71875 13.117188 19.261719 C 12.484375 18.566406 12.296875 17.515625 12.632812 16.601562 C 12.96875 15.6875 13.769531 15.089844 14.652344 15.09375 C 15.234375 15.074219 15.796875 15.332031 16.199219 15.800781 C 16.710938 16.378906 16.929688 17.203125 16.789062 18 C 16.648438 18.796875 16.164062 19.464844 15.496094 19.78125 C 15.226562 19.90625 14.941406 19.972656 14.652344 19.972656 Z M 14.652344 16.488281 C 14.28125 16.511719 13.953125 16.757812 13.789062 17.132812 C 13.644531 17.523438 13.722656 17.972656 13.992188 18.273438 C 14.257812 18.574219 14.660156 18.660156 15.011719 18.5 C 15.300781 18.363281 15.511719 18.078125 15.570312 17.734375 C 15.632812 17.394531 15.535156 17.039062 15.316406 16.789062 C 15.136719 16.597656 14.902344 16.488281 14.652344 16.488281 Z M 2.789062 16.679688 C 2.699219 16.683594 2.609375 16.660156 2.527344 16.617188 C 2.375 16.539062 2.257812 16.398438 2.199219 16.222656 C 2.144531 16.050781 2.152344 15.855469 2.222656 15.6875 C 2.800781 14.257812 4.03125 13.289062 5.429688 13.160156 L 4.328125 6.816406 C 4.261719 6.441406 4.480469 6.074219 4.816406 6 C 5.152344 5.925781 5.480469 6.171875 5.546875 6.546875 L 6.695312 13.109375 L 16.621094 13.109375 L 18.515625 5.144531 L 4.515625 5.144531 C 2.261719 5.136719 0.347656 3.292969 0.0117188 0.800781 C -0.015625 0.617188 0.0234375 0.433594 0.121094 0.285156 C 0.21875 0.136719 0.363281 0.0351562 0.527344 0.0078125 C 0.867188 -0.046875 1.1875 0.214844 1.242188 0.597656 C 1.488281 2.40625 2.878906 3.746094 4.515625 3.75 L 19.328125 3.75 C 19.519531 3.75 19.703125 3.851562 19.820312 4.023438 C 19.941406 4.195312 19.984375 4.417969 19.9375 4.628906 L 17.695312 13.988281 C 17.625 14.292969 17.375 14.503906 17.09375 14.507812 L 6.191406 14.507812 C 6.183594 14.503906 6.175781 14.503906 6.167969 14.507812 C 4.984375 14.367188 3.855469 15.082031 3.347656 16.28125 C 3.246094 16.523438 3.027344 16.679688 2.789062 16.679688 Z M 2.789062 16.679688 "/>
</g>
</svg>
