<?xml version="1.0" encoding="UTF-8"?>
<svg xmlns="http://www.w3.org/2000/svg" xmlns:xlink="http://www.w3.org/1999/xlink" width="15px" height="15px" viewBox="0 0 15 15" version="1.1">
<g id="surface1">
<path style=" stroke:none;fill-rule:nonzero;fill:rgb(0%,0%,0%);fill-opacity:1;" d="M 13.457031 4.445312 C 13.46875 4.578125 13.46875 4.710938 13.46875 4.84375 C 13.46875 8.910156 10.375 13.589844 4.722656 13.589844 C 2.980469 13.589844 1.359375 13.085938 0 12.210938 C 0.246094 12.238281 0.484375 12.25 0.742188 12.25 C 2.179688 12.25 3.503906 11.765625 4.558594 10.9375 C 3.207031 10.90625 2.074219 10.023438 1.683594 8.804688 C 1.875 8.832031 2.066406 8.851562 2.265625 8.851562 C 2.542969 8.851562 2.816406 8.8125 3.074219 8.746094 C 1.664062 8.460938 0.609375 7.222656 0.609375 5.730469 L 0.609375 5.691406 C 1.019531 5.921875 1.496094 6.0625 2 6.082031 C 1.171875 5.53125 0.628906 4.585938 0.628906 3.523438 C 0.628906 2.949219 0.78125 2.425781 1.046875 1.96875 C 2.558594 3.835938 4.835938 5.054688 7.386719 5.1875 C 7.339844 4.957031 7.308594 4.722656 7.308594 4.484375 C 7.308594 2.789062 8.679688 1.410156 10.382812 1.410156 C 11.269531 1.410156 12.070312 1.78125 12.628906 2.378906 C 13.324219 2.246094 13.992188 1.988281 14.582031 1.636719 C 14.351562 2.351562 13.867188 2.949219 13.230469 3.332031 C 13.847656 3.265625 14.449219 3.09375 15 2.855469 C 14.582031 3.464844 14.058594 4.007812 13.457031 4.445312 Z M 13.457031 4.445312 "/>
</g>
</svg>
